<svg width="32" height="32" viewBox="0 0 32 32" fill="none" xmlns="http://www.w3.org/2000/svg">
    <path fill-rule="evenodd" clip-rule="evenodd" d="M15.9999 1.33325C7.89992 1.33325 1.33325 7.89992 1.33325 15.9999C1.33325 24.0999 7.89992 30.6666 15.9999 30.6666C24.0999 30.6666 30.6666 24.0999 30.6666 15.9999C30.6666 7.89992 24.0999 1.33325 15.9999 1.33325ZM18.9426 11.6093C19.1855 11.3578 19.3199 11.021 19.3168 10.6714C19.3138 10.3218 19.1736 9.98737 18.9263 9.74016C18.6791 9.49295 18.3447 9.35272 17.9951 9.34969C17.6455 9.34665 17.3087 9.48104 17.0573 9.72392L11.7239 15.0573C11.474 15.3073 11.3335 15.6464 11.3335 15.9999C11.3335 16.3535 11.474 16.6925 11.7239 16.9426L17.0573 22.2759C17.3087 22.5188 17.6455 22.6532 17.9951 22.6502C18.3447 22.6471 18.6791 22.5069 18.9263 22.2597C19.1736 22.0125 19.3138 21.678 19.3168 21.3285C19.3199 20.9789 19.1855 20.6421 18.9426 20.3906L14.5519 15.9999L18.9426 11.6093Z" fill="#F45B69" />
</svg>