<svg width="32" height="32" viewBox="0 0 32 32" fill="none" xmlns="http://www.w3.org/2000/svg">
    <path fill-rule="evenodd" clip-rule="evenodd" d="M16.0001 30.6667C24.1001 30.6667 30.6667 24.1001 30.6667 16.0001C30.6667 7.90008 24.1001 1.33341 16.0001 1.33342C7.90008 1.33342 1.33341 7.90008 1.33341 16.0001C1.33341 24.1001 7.90008 30.6668 16.0001 30.6667ZM13.0574 20.3907C12.8145 20.6422 12.6801 20.979 12.6832 21.3286C12.6862 21.6782 12.8264 22.0126 13.0737 22.2598C13.3209 22.5071 13.6553 22.6473 14.0049 22.6503C14.3545 22.6534 14.6913 22.519 14.9427 22.2761L20.2761 16.9427C20.526 16.6927 20.6665 16.3536 20.6665 16.0001C20.6665 15.6465 20.526 15.3075 20.2761 15.0574L14.9427 9.72408C14.6913 9.4812 14.3545 9.34681 14.0049 9.34985C13.6553 9.35289 13.3209 9.49311 13.0737 9.74032C12.8264 9.98754 12.6862 10.322 12.6832 10.6715C12.6801 11.0211 12.8145 11.3579 13.0574 11.6094L17.4481 16.0001L13.0574 20.3907Z" fill="#F45B69" />
</svg>