<svg width="33" height="32" viewBox="0 0 33 32" fill="none" xmlns="http://www.w3.org/2000/svg">
<g clip-path="url(#clip0_38110_24)">
<rect x="0.5" width="32" height="32" rx="16" fill="#F45B69"/>
<path d="M13.1757 8.58594H19.8257C22.359 8.58594 24.4173 10.6443 24.4173 13.1776V19.8276C24.4173 21.0454 23.9336 22.2133 23.0724 23.0744C22.2113 23.9355 21.0434 24.4193 19.8257 24.4193H13.1757C10.6423 24.4193 8.58398 22.3609 8.58398 19.8276V13.1776C8.58398 11.9598 9.06775 10.7919 9.92885 9.93081C10.79 9.0697 11.9579 8.58594 13.1757 8.58594ZM13.0173 10.1693C12.2615 10.1693 11.5365 10.4695 11.0021 11.004C10.4676 11.5385 10.1673 12.2634 10.1673 13.0193V19.9859C10.1673 21.5614 11.4419 22.8359 13.0173 22.8359H19.984C20.7399 22.8359 21.4648 22.5357 21.9992 22.0012C22.5337 21.4667 22.834 20.7418 22.834 19.9859V13.0193C22.834 11.4439 21.5594 10.1693 19.984 10.1693H13.0173ZM20.6569 11.3568C20.9194 11.3568 21.1711 11.461 21.3566 11.6466C21.5422 11.8322 21.6465 12.0839 21.6465 12.3464C21.6465 12.6088 21.5422 12.8605 21.3566 13.0461C21.1711 13.2317 20.9194 13.3359 20.6569 13.3359C20.3944 13.3359 20.1427 13.2317 19.9572 13.0461C19.7716 12.8605 19.6673 12.6088 19.6673 12.3464C19.6673 12.0839 19.7716 11.8322 19.9572 11.6466C20.1427 11.461 20.3944 11.3568 20.6569 11.3568ZM16.5007 12.5443C17.5505 12.5443 18.5573 12.9613 19.2996 13.7036C20.0419 14.446 20.459 15.4528 20.459 16.5026C20.459 17.5524 20.0419 18.5592 19.2996 19.3016C18.5573 20.0439 17.5505 20.4609 16.5007 20.4609C15.4508 20.4609 14.444 20.0439 13.7017 19.3016C12.9594 18.5592 12.5423 17.5524 12.5423 16.5026C12.5423 15.4528 12.9594 14.446 13.7017 13.7036C14.444 12.9613 15.4508 12.5443 16.5007 12.5443ZM16.5007 14.1276C15.8708 14.1276 15.2667 14.3778 14.8213 14.8232C14.3759 15.2686 14.1257 15.8727 14.1257 16.5026C14.1257 17.1325 14.3759 17.7366 14.8213 18.182C15.2667 18.6274 15.8708 18.8776 16.5007 18.8776C17.1305 18.8776 17.7346 18.6274 18.18 18.182C18.6254 17.7366 18.8757 17.1325 18.8757 16.5026C18.8757 15.8727 18.6254 15.2686 18.18 14.8232C17.7346 14.3778 17.1305 14.1276 16.5007 14.1276Z" fill="white"/>
</g>
<defs>
<clipPath id="clip0_38110_24">
<rect width="32" height="32" fill="white" transform="translate(0.5)"/>
</clipPath>
</defs>
</svg>
