<svg width="305" height="64" viewBox="0 0 305 64" fill="none" xmlns="http://www.w3.org/2000/svg">
<rect width="64" height="64" rx="32" fill="white"/>
<path fill-rule="evenodd" clip-rule="evenodd" d="M43.1089 15.8692C39.0885 14.206 34.0764 14.2688 30.2994 16.0295C27.7941 17.1979 24.5574 19.7117 23.201 21.5434C20.2233 25.5645 20.6437 31.52 24.1536 35.0443C25.5568 36.4535 25.1531 37.401 23.0589 37.6119C20.7613 37.8429 19.1764 41.2332 20.8066 42.4298C21.7049 43.0891 22.5542 42.4079 22.4067 41.1455C22.234 39.6678 23.439 39.2225 24.6 40.3352C26.4477 42.1054 26.6482 42.185 27.2376 41.382C27.651 40.8189 27.6224 40.4042 27.131 39.8375C26.6705 39.3055 26.6098 38.8002 26.9382 38.2263C27.3367 37.5307 27.8909 37.4353 30.2454 37.6566C32.225 37.8426 33.1617 37.735 33.3659 37.2987C33.8322 36.3025 32.8477 35.6557 30.8798 35.6655C29.3958 35.6729 28.6429 35.403 26.8442 34.2189C24.8596 32.9123 24.5506 32.5566 23.8289 30.7454C22.6223 27.7185 23.1386 25.426 25.7403 22.2565C31.3715 15.3969 41.0027 14.9061 47.0057 21.1726C49.1082 23.3677 50.0434 25.1894 50.4153 27.8144C51.3477 34.4 47.3692 40.6234 39.7075 44.564C35.6358 46.6579 28.5037 47.7517 24.4221 46.9078C15.8338 45.1322 11.1845 39.4264 12.3937 32.1455C12.7328 30.1031 13.2421 28.7482 14.312 27.0405C15.8589 24.5713 15.9301 23.9119 14.643 23.9708C13.3353 24.0309 10.9703 28.0168 10.3345 31.2319C9.72094 34.335 10.4368 38.7261 11.9869 41.3629C16.7532 49.4724 30.2599 51.788 40.9367 46.3265C44.9906 44.2528 47.5187 42.0083 49.9303 38.3414C51.6756 35.6877 51.9795 34.9357 52.4401 32.1337C53.0662 28.3282 52.4495 25.1268 50.5359 22.2445C49.0317 19.9786 45.3007 16.7759 43.1089 15.8692Z" fill="#F45B69"/>
<path d="M74 30L79 32L92.8303 37.0292C101.661 40.2402 111.339 40.2402 120.17 37.0292L134 32L147.83 26.9708C156.661 23.7598 166.339 23.7598 175.17 26.9708L189 32L202.83 37.0292C211.661 40.2402 221.339 40.2402 230.17 37.0292L244 32L257.83 26.9708C266.661 23.7598 276.339 23.7598 285.17 26.9708L299 32L304 34" stroke="#58ABB8" stroke-width="2" stroke-linecap="round"/>
<path d="M74 34L79 32L92.8303 26.9708C101.661 23.7598 111.339 23.7598 120.17 26.9708L134 32L147.83 37.0292C156.661 40.2402 166.339 40.2402 175.17 37.0292L189 32L202.83 26.9708C211.661 23.7598 221.339 23.7598 230.17 26.9708L244 32L257.83 37.0292C266.661 40.2402 276.339 40.2402 285.17 37.0292L299 32L304 30" stroke="#58ABB8" stroke-width="2" stroke-linecap="round"/>
<path d="M106 25L106 30.1739L106 39" stroke="#58ABB8" stroke-width="2"/>
<path d="M112 25L112 30.1739L112 39" stroke="#58ABB8" stroke-width="2"/>
<path d="M118 26L118 30.4348L118 38" stroke="#58ABB8" stroke-width="2"/>
<path d="M124 28L124 30.9565L124 36" stroke="#58ABB8" stroke-width="2"/>
<path d="M100 25L100 30.1739L100 39" stroke="#58ABB8" stroke-width="2"/>
<path d="M94 27L94 30.6957L94 37" stroke="#58ABB8" stroke-width="2"/>
<path d="M88 28L88 30.9565L88 36" stroke="#58ABB8" stroke-width="2"/>
<path d="M161 25L161 30.1739L161 39" stroke="#58ABB8" stroke-width="2"/>
<path d="M167 25L167 30.1739L167 39" stroke="#58ABB8" stroke-width="2"/>
<path d="M173 26L173 30.4348L173 38" stroke="#58ABB8" stroke-width="2"/>
<path d="M179 28L179 30.9565L179 36" stroke="#58ABB8" stroke-width="2"/>
<path d="M155 25L155 30.1739L155 39" stroke="#58ABB8" stroke-width="2"/>
<path d="M149 27L149 30.6957L149 37" stroke="#58ABB8" stroke-width="2"/>
<path d="M143 28L143 30.9565L143 36" stroke="#58ABB8" stroke-width="2"/>
<path d="M216 25L216 30.1739L216 39" stroke="#58ABB8" stroke-width="2"/>
<path d="M222 25L222 30.1739L222 39" stroke="#58ABB8" stroke-width="2"/>
<path d="M228 26L228 30.4348L228 38" stroke="#58ABB8" stroke-width="2"/>
<path d="M234 28L234 30.9565L234 36" stroke="#58ABB8" stroke-width="2"/>
<path d="M210 25L210 30.1739L210 39" stroke="#58ABB8" stroke-width="2"/>
<path d="M204 27L204 30.6957L204 37" stroke="#58ABB8" stroke-width="2"/>
<path d="M198 28L198 30.9565L198 36" stroke="#58ABB8" stroke-width="2"/>
<path d="M271 25L271 30.1739L271 39" stroke="#58ABB8" stroke-width="2"/>
<path d="M277 25L277 30.1739L277 39" stroke="#58ABB8" stroke-width="2"/>
<path d="M283 26L283 30.4348L283 38" stroke="#58ABB8" stroke-width="2"/>
<path d="M289 28L289 30.9565L289 36" stroke="#58ABB8" stroke-width="2"/>
<path d="M265 25L265 30.1739L265 39" stroke="#58ABB8" stroke-width="2"/>
<path d="M259 27L259 30.6957L259 37" stroke="#58ABB8" stroke-width="2"/>
<path d="M253 28L253 30.9565L253 36" stroke="#58ABB8" stroke-width="2"/>
</svg>
