<svg width="305" height="64" viewBox="0 0 305 64" fill="none" xmlns="http://www.w3.org/2000/svg">
<rect width="64" height="64" rx="32" fill="white"/>
<path fill-rule="evenodd" clip-rule="evenodd" d="M31.9316 10.2912C27.43 11.4239 23.1649 14.7151 21.0308 18.7024C19.6156 21.3477 18.4203 25.6485 18.4101 28.1355C18.3875 33.595 22.5031 38.5622 27.7394 39.3961C29.833 39.7297 30.0835 40.8238 28.4178 42.3614C26.5901 44.048 27.3661 48.0535 29.5206 48.0535C30.7078 48.0535 31.0078 46.9059 30.0852 45.8907C29.0054 44.7024 29.7597 43.5328 31.4582 43.762C34.1612 44.1261 34.3836 44.0667 34.3836 42.9798C34.3836 42.2176 34.0977 41.8713 33.3183 41.69C32.5875 41.5194 32.2167 41.1141 32.137 40.3973C32.0407 39.5281 32.4566 39.0863 34.6184 37.7609C36.4359 36.6465 37.1726 35.947 37.0729 35.4314C36.8454 34.2541 35.5921 34.3207 33.908 35.5999C32.6382 36.5645 31.8213 36.8132 29.53 36.9329C27.0017 37.0649 26.5121 36.9516 24.7505 35.8244C21.8059 33.9409 20.8041 31.591 21.0406 27.1233C21.5528 17.4538 29.5155 10.8039 38.6219 12.4404C41.8115 13.0137 43.7632 14.0123 45.7374 16.0813C50.6899 21.2721 51.1962 29.3149 47.0998 37.7278C44.9227 42.1985 39.4865 47.7653 35.4489 49.6581C26.9532 53.6411 19.3629 51.624 15.8115 44.4389C14.8152 42.4234 14.3985 40.9028 14.2408 38.7099C14.0128 35.5392 13.6583 34.9132 12.59 35.796C11.5046 36.6931 11.9862 41.7261 13.467 44.9647C14.8962 48.0904 18.2793 51.4907 21.2728 52.8093C30.479 56.8653 43.5395 50.1819 49.2667 38.4845C51.4412 34.0432 52.1976 30.4366 51.9572 25.6541C51.7834 22.1931 51.5703 21.3354 50.1995 18.5734C48.3381 14.8217 45.7903 12.4039 42.3297 11.1039C39.6093 10.082 34.3857 9.67369 31.9316 10.2912Z" fill="#F45B69"/>
<path d="M74 30L79 32L92.8303 37.0292C101.661 40.2402 111.339 40.2402 120.17 37.0292L134 32L147.83 26.9708C156.661 23.7598 166.339 23.7598 175.17 26.9708L189 32L202.83 37.0292C211.661 40.2402 221.339 40.2402 230.17 37.0292L244 32L257.83 26.9708C266.661 23.7598 276.339 23.7598 285.17 26.9708L299 32L304 34" stroke="#58ABB8" stroke-width="2" stroke-linecap="round"/>
<path d="M74 34L79 32L92.8303 26.9708C101.661 23.7598 111.339 23.7598 120.17 26.9708L134 32L147.83 37.0292C156.661 40.2402 166.339 40.2402 175.17 37.0292L189 32L202.83 26.9708C211.661 23.7598 221.339 23.7598 230.17 26.9708L244 32L257.83 37.0292C266.661 40.2402 276.339 40.2402 285.17 37.0292L299 32L304 30" stroke="#58ABB8" stroke-width="2" stroke-linecap="round"/>
<path d="M106 25L106 30.1739L106 39" stroke="#58ABB8" stroke-width="2"/>
<path d="M112 25L112 30.1739L112 39" stroke="#58ABB8" stroke-width="2"/>
<path d="M118 26L118 30.4348L118 38" stroke="#58ABB8" stroke-width="2"/>
<path d="M124 28L124 30.9565L124 36" stroke="#58ABB8" stroke-width="2"/>
<path d="M100 25L100 30.1739L100 39" stroke="#58ABB8" stroke-width="2"/>
<path d="M94 27L94 30.6957L94 37" stroke="#58ABB8" stroke-width="2"/>
<path d="M88 28L88 30.9565L88 36" stroke="#58ABB8" stroke-width="2"/>
<path d="M161 25L161 30.1739L161 39" stroke="#58ABB8" stroke-width="2"/>
<path d="M167 25L167 30.1739L167 39" stroke="#58ABB8" stroke-width="2"/>
<path d="M173 26L173 30.4348L173 38" stroke="#58ABB8" stroke-width="2"/>
<path d="M179 28L179 30.9565L179 36" stroke="#58ABB8" stroke-width="2"/>
<path d="M155 25L155 30.1739L155 39" stroke="#58ABB8" stroke-width="2"/>
<path d="M149 27L149 30.6957L149 37" stroke="#58ABB8" stroke-width="2"/>
<path d="M143 28L143 30.9565L143 36" stroke="#58ABB8" stroke-width="2"/>
<path d="M216 25L216 30.1739L216 39" stroke="#58ABB8" stroke-width="2"/>
<path d="M222 25L222 30.1739L222 39" stroke="#58ABB8" stroke-width="2"/>
<path d="M228 26L228 30.4348L228 38" stroke="#58ABB8" stroke-width="2"/>
<path d="M234 28L234 30.9565L234 36" stroke="#58ABB8" stroke-width="2"/>
<path d="M210 25L210 30.1739L210 39" stroke="#58ABB8" stroke-width="2"/>
<path d="M204 27L204 30.6957L204 37" stroke="#58ABB8" stroke-width="2"/>
<path d="M198 28L198 30.9565L198 36" stroke="#58ABB8" stroke-width="2"/>
<path d="M271 25L271 30.1739L271 39" stroke="#58ABB8" stroke-width="2"/>
<path d="M277 25L277 30.1739L277 39" stroke="#58ABB8" stroke-width="2"/>
<path d="M283 26L283 30.4348L283 38" stroke="#58ABB8" stroke-width="2"/>
<path d="M289 28L289 30.9565L289 36" stroke="#58ABB8" stroke-width="2"/>
<path d="M265 25L265 30.1739L265 39" stroke="#58ABB8" stroke-width="2"/>
<path d="M259 27L259 30.6957L259 37" stroke="#58ABB8" stroke-width="2"/>
<path d="M253 28L253 30.9565L253 36" stroke="#58ABB8" stroke-width="2"/>
</svg>
