<svg width="32" height="32" viewBox="0 0 32 32" fill="none" xmlns="http://www.w3.org/2000/svg">
<rect width="32" height="32" rx="16" fill="#F45B69"/>
<path d="M16 9.2998C12.32 9.2998 9.33337 12.2865 9.33337 15.9665C9.33337 19.6465 12.32 22.6331 16 22.6331H19.3334V21.2998H16C13.1067 21.2998 10.6667 18.8598 10.6667 15.9665C10.6667 13.0731 13.1067 10.6331 16 10.6331C18.8934 10.6331 21.3334 13.0731 21.3334 15.9665V16.9198C21.3334 17.4465 20.86 17.9665 20.3334 17.9665C19.8067 17.9665 19.3334 17.4465 19.3334 16.9198V15.9665C19.3334 14.1265 17.84 12.6331 16 12.6331C14.16 12.6331 12.6667 14.1265 12.6667 15.9665C12.6667 17.8065 14.16 19.2998 16 19.2998C16.92 19.2998 17.76 18.9265 18.36 18.3198C18.7934 18.9131 19.54 19.2998 20.3334 19.2998C21.6467 19.2998 22.6667 18.2331 22.6667 16.9198V15.9665C22.6667 12.2865 19.68 9.2998 16 9.2998ZM16 17.9665C14.8934 17.9665 14 17.0731 14 15.9665C14 14.8598 14.8934 13.9665 16 13.9665C17.1067 13.9665 18 14.8598 18 15.9665C18 17.0731 17.1067 17.9665 16 17.9665Z" fill="white"/>
</svg>
