<svg width="33" height="32" viewBox="0 0 33 32" fill="none" xmlns="http://www.w3.org/2000/svg">
<g clip-path="url(#clip0_38110_3)">
<rect x="0.5" width="32" height="32" rx="16" fill="#F45B69"/>
<path d="M26.1767 10.8333C25.4708 11.1542 24.71 11.365 23.9217 11.4658C24.7283 10.98 25.3517 10.21 25.645 9.28417C24.8842 9.7425 24.0408 10.0633 23.1517 10.2467C22.4275 9.45833 21.41 9 20.255 9C18.1008 9 16.3408 10.76 16.3408 12.9325C16.3408 13.2442 16.3775 13.5467 16.4417 13.8308C13.1783 13.6658 10.2725 12.0983 8.33833 9.72417C7.99917 10.3017 7.80667 10.98 7.80667 11.695C7.80667 13.0608 8.49417 14.2708 9.5575 14.9583C8.90667 14.9583 8.30167 14.775 7.77 14.5V14.5275C7.77 16.4342 9.12667 18.0292 10.9233 18.3867C10.3466 18.5452 9.74087 18.5672 9.15417 18.4508C9.40314 19.2323 9.89074 19.916 10.5484 20.406C11.2061 20.896 12.0008 21.1675 12.8208 21.1825C11.4309 22.283 9.70784 22.8778 7.935 22.8692C7.62333 22.8692 7.31167 22.8508 7 22.8142C8.74167 23.9325 10.8133 24.5833 13.0317 24.5833C20.255 24.5833 24.2242 18.5883 24.2242 13.3908C24.2242 13.2167 24.2242 13.0517 24.215 12.8775C24.985 12.3275 25.645 11.6308 26.1767 10.8333Z" fill="white"/>
</g>
<defs>
<clipPath id="clip0_38110_3">
<rect width="32" height="32" fill="white" transform="translate(0.5)"/>
</clipPath>
</defs>
</svg>
