<svg width="305" height="64" viewBox="0 0 305 64" fill="none" xmlns="http://www.w3.org/2000/svg">
<rect width="64" height="64" rx="32" fill="white"/>
<path d="M20.6176 26.9951C17.6473 29.4054 16.6436 36.344 20.6176 41.0566C24.8826 46.1143 32.6951 45.9189 38.4387 42.6629C44.1823 39.4069 50.3195 28.6015 41.7803 22.1742C33.2411 15.747 25.4442 25.2103 25.4441 29.4048C25.444 33.5993 27.3004 36.2347 32.8696 36.2347" stroke="#F45B69" stroke-width="2.5" stroke-linecap="round"/>
<path d="M74 30L79 32L92.8303 37.0292C101.661 40.2402 111.339 40.2402 120.17 37.0292L134 32L147.83 26.9708C156.661 23.7598 166.339 23.7598 175.17 26.9708L189 32L202.83 37.0292C211.661 40.2402 221.339 40.2402 230.17 37.0292L244 32L257.83 26.9708C266.661 23.7598 276.339 23.7598 285.17 26.9708L299 32L304 34" stroke="#58ABB8" stroke-width="2" stroke-linecap="round"/>
<path d="M74 34L79 32L92.8303 26.9708C101.661 23.7598 111.339 23.7598 120.17 26.9708L134 32L147.83 37.0292C156.661 40.2402 166.339 40.2402 175.17 37.0292L189 32L202.83 26.9708C211.661 23.7598 221.339 23.7598 230.17 26.9708L244 32L257.83 37.0292C266.661 40.2402 276.339 40.2402 285.17 37.0292L299 32L304 30" stroke="#58ABB8" stroke-width="2" stroke-linecap="round"/>
<path d="M106 25L106 30.1739L106 39" stroke="#58ABB8" stroke-width="2"/>
<path d="M112 25L112 30.1739L112 39" stroke="#58ABB8" stroke-width="2"/>
<path d="M118 26L118 30.4348L118 38" stroke="#58ABB8" stroke-width="2"/>
<path d="M124 28L124 30.9565L124 36" stroke="#58ABB8" stroke-width="2"/>
<path d="M100 25L100 30.1739L100 39" stroke="#58ABB8" stroke-width="2"/>
<path d="M94 27L94 30.6957L94 37" stroke="#58ABB8" stroke-width="2"/>
<path d="M88 28L88 30.9565L88 36" stroke="#58ABB8" stroke-width="2"/>
<path d="M161 25L161 30.1739L161 39" stroke="#58ABB8" stroke-width="2"/>
<path d="M167 25L167 30.1739L167 39" stroke="#58ABB8" stroke-width="2"/>
<path d="M173 26L173 30.4348L173 38" stroke="#58ABB8" stroke-width="2"/>
<path d="M179 28L179 30.9565L179 36" stroke="#58ABB8" stroke-width="2"/>
<path d="M155 25L155 30.1739L155 39" stroke="#58ABB8" stroke-width="2"/>
<path d="M149 27L149 30.6957L149 37" stroke="#58ABB8" stroke-width="2"/>
<path d="M143 28L143 30.9565L143 36" stroke="#58ABB8" stroke-width="2"/>
<path d="M216 25L216 30.1739L216 39" stroke="#58ABB8" stroke-width="2"/>
<path d="M222 25L222 30.1739L222 39" stroke="#58ABB8" stroke-width="2"/>
<path d="M228 26L228 30.4348L228 38" stroke="#58ABB8" stroke-width="2"/>
<path d="M234 28L234 30.9565L234 36" stroke="#58ABB8" stroke-width="2"/>
<path d="M210 25L210 30.1739L210 39" stroke="#58ABB8" stroke-width="2"/>
<path d="M204 27L204 30.6957L204 37" stroke="#58ABB8" stroke-width="2"/>
<path d="M198 28L198 30.9565L198 36" stroke="#58ABB8" stroke-width="2"/>
<path d="M271 25L271 30.1739L271 39" stroke="#58ABB8" stroke-width="2"/>
<path d="M277 25L277 30.1739L277 39" stroke="#58ABB8" stroke-width="2"/>
<path d="M283 26L283 30.4348L283 38" stroke="#58ABB8" stroke-width="2"/>
<path d="M289 28L289 30.9565L289 36" stroke="#58ABB8" stroke-width="2"/>
<path d="M265 25L265 30.1739L265 39" stroke="#58ABB8" stroke-width="2"/>
<path d="M259 27L259 30.6957L259 37" stroke="#58ABB8" stroke-width="2"/>
<path d="M253 28L253 30.9565L253 36" stroke="#58ABB8" stroke-width="2"/>
</svg>
