<svg width="33" height="32" viewBox="0 0 33 32" fill="none" xmlns="http://www.w3.org/2000/svg">
<g clip-path="url(#clip0_38110_34)">
<rect x="0.5" width="32" height="32" rx="16" fill="#F45B69"/>
<path d="M14.083 23.2211V17.4022H11.8559C11.7403 17.4022 11.6294 17.3563 11.5476 17.2745C11.4659 17.1928 11.4199 17.0819 11.4199 16.9663V14.6648C11.4199 14.5492 11.4659 14.4383 11.5476 14.3565C11.6294 14.2747 11.7403 14.2288 11.8559 14.2288H14.0742V12.0009C14.0211 11.4726 14.0844 10.9391 14.2595 10.4378C14.4346 9.93649 14.7174 9.47963 15.0879 9.09928C15.4584 8.71893 15.9077 8.42431 16.4042 8.23612C16.9007 8.04792 17.4324 7.97072 17.962 8.00993H19.8179C19.9346 8.0097 20.0468 8.05537 20.1301 8.13708C20.2135 8.21879 20.2614 8.33 20.2635 8.44671V10.3954C20.261 10.5119 20.2129 10.6228 20.1296 10.7043C20.0463 10.7858 19.9344 10.8314 19.8179 10.8314H18.6579C17.4052 10.8314 17.1644 11.425 17.1644 12.2977V14.228H20.1427C20.2046 14.226 20.2662 14.2374 20.3232 14.2616C20.3802 14.2858 20.4313 14.3221 20.4729 14.368C20.5144 14.4139 20.5455 14.4683 20.5639 14.5274C20.5823 14.5866 20.5876 14.649 20.5794 14.7104L20.3099 17.0207C20.2964 17.1265 20.2445 17.2237 20.1642 17.2938C20.0838 17.364 19.9806 17.4023 19.8739 17.4014H17.1828V23.2203C17.1843 23.3232 17.1652 23.4252 17.1265 23.5205C17.0878 23.6157 17.0304 23.7023 16.9577 23.7749C16.885 23.8476 16.7984 23.9049 16.7031 23.9435C16.6078 23.9821 16.5057 24.0011 16.4029 23.9995H14.8533C14.7513 23.9998 14.6503 23.9798 14.5561 23.9407C14.4619 23.9015 14.3765 23.844 14.3048 23.7715C14.233 23.699 14.1765 23.6129 14.1384 23.5182C14.1003 23.4236 14.0815 23.3231 14.083 23.2211Z" fill="white"/>
</g>
<defs>
<clipPath id="clip0_38110_34">
<rect width="32" height="32" fill="white" transform="translate(0.5)"/>
</clipPath>
</defs>
</svg>
