<svg width="32" height="32" viewBox="0 0 32 32" fill="none" xmlns="http://www.w3.org/2000/svg">
    <path d="M8.66668 13.3333C8.36934 13.3333 8.08401 13.3786 7.80001 13.42C7.89201 13.1106 7.98668 12.796 8.13868 12.5133C8.29068 12.1026 8.52801 11.7466 8.76401 11.388C8.96134 11 9.30934 10.7373 9.56534 10.4053C9.83334 10.0826 10.1987 9.86796 10.488 9.59996C10.772 9.31996 11.144 9.17996 11.44 8.98262C11.7493 8.80529 12.0187 8.60929 12.3067 8.51596L13.0253 8.21996L13.6573 7.95729L13.0107 5.37329L12.2147 5.56529C11.96 5.62929 11.6493 5.70396 11.296 5.79329C10.9347 5.85996 10.5493 6.04262 10.12 6.20929C9.69601 6.39862 9.20534 6.52662 8.74934 6.83062C8.29068 7.12129 7.76134 7.36396 7.29468 7.75329C6.84268 8.15462 6.29734 8.50262 5.89468 9.01329C5.45468 9.49062 5.02001 9.99196 4.68268 10.5626C4.29201 11.1066 4.02668 11.704 3.74668 12.2946C3.49334 12.8853 3.28934 13.4893 3.12268 14.076C2.80668 15.252 2.66534 16.3693 2.61068 17.3253C2.56534 18.2826 2.59201 19.0786 2.64801 19.6546C2.66801 19.9266 2.70534 20.1906 2.73201 20.3733L2.76534 20.5973L2.80001 20.5893C3.03716 21.6971 3.58308 22.7151 4.37463 23.5255C5.16618 24.336 6.171 24.9058 7.27286 25.1691C8.37473 25.4323 9.5286 25.3782 10.601 25.0131C11.6734 24.6479 12.6206 23.9866 13.3328 23.1057C14.0451 22.2247 14.4934 21.1601 14.6259 20.035C14.7584 18.9099 14.5697 17.7703 14.0815 16.748C13.5934 15.7257 12.8258 14.8624 11.8675 14.2582C10.9093 13.6539 9.79955 13.3332 8.66668 13.3333ZM23.3333 13.3333C23.036 13.3333 22.7507 13.3786 22.4667 13.42C22.5587 13.1106 22.6533 12.796 22.8053 12.5133C22.9573 12.1026 23.1947 11.7466 23.4307 11.388C23.628 11 23.976 10.7373 24.232 10.4053C24.5 10.0826 24.8653 9.86796 25.1547 9.59996C25.4387 9.31996 25.8107 9.17996 26.1067 8.98262C26.416 8.80529 26.6853 8.60929 26.9733 8.51596L27.692 8.21996L28.324 7.95729L27.6773 5.37329L26.8813 5.56529C26.6267 5.62929 26.316 5.70396 25.9627 5.79329C25.6013 5.85996 25.216 6.04262 24.7867 6.20929C24.364 6.39996 23.872 6.52662 23.416 6.83196C22.9573 7.12262 22.428 7.36529 21.9613 7.75462C21.5093 8.15596 20.964 8.50396 20.5613 9.01329C20.1213 9.49062 19.6867 9.99196 19.3493 10.5626C18.9587 11.1066 18.6933 11.704 18.4133 12.2946C18.16 12.8853 17.956 13.4893 17.7893 14.076C17.4733 15.252 17.332 16.3693 17.2773 17.3253C17.232 18.2826 17.2587 19.0786 17.3147 19.6546C17.3347 19.9266 17.372 20.1906 17.3987 20.3733L17.432 20.5973L17.4667 20.5893C17.7038 21.6971 18.2497 22.7151 19.0413 23.5255C19.8328 24.336 20.8377 24.9058 21.9395 25.1691C23.0414 25.4323 24.1953 25.3782 25.2677 25.0131C26.3401 24.6479 27.2872 23.9866 27.9995 23.1057C28.7118 22.2247 29.1601 21.1601 29.2926 20.035C29.4251 18.9099 29.2363 17.7703 28.7482 16.748C28.26 15.7257 27.4925 14.8624 26.5342 14.2582C25.576 13.6539 24.4662 13.3332 23.3333 13.3333Z" fill="#114B5F" />
</svg>